name rise49.5252peak65.1548fall88.8305.mot
datacolumns 19
datarows 11
range 4.30831100000000 4.32497700000000
endheader
time	ground_force1_vx	ground_force1_vy	ground_force1_vz	ground_force1_px	ground_force1_py	ground_force1_pz	ground_force2_vx	ground_force2_vy	ground_force2_vz	ground_force2_px	ground_force2_py	ground_force2_pz	ground_torque1_x	ground_torque1_y	ground_torque1_z	ground_torque2_x	ground_torque2_y	ground_torque2_z	
4.30831100000000	-13.25217800000000	46.08712500000000	-8.93690400000000	0.34154600000000	0.00000000000000	0.12738400000000	-40.05898400000000	798.78555300000005	-49.71708500000000	0.17651500000000	0.00000000000000	-0.05792700000000	0.00000000000000	-4.67865900000000	0.00000000000000	0.00000000000000	-21.41257000000000	0.00000000000000	
4.30998100000000	-14.40191900000000	52.83739600000000	-9.85634400000000	0.34476900000000	0.00000000000000	0.12820600000000	-40.96343600000000	796.45326499999999	-49.37204000000000	0.17546400000000	0.00000000000000	-0.05783300000000	0.00000000000000	-5.21917400000000	0.00000000000000	0.00000000000000	-21.29211400000000	0.00000000000000	
4.31164600000000	-15.34365300000000	59.55897600000000	-10.66829800000000	0.34781400000000	0.00000000000000	0.12896200000000	-41.88327500000000	793.99643800000001	-49.01457300000000	0.17441200000000	0.00000000000000	-0.05773800000000	0.00000000000000	-5.71661600000000	0.00000000000000	0.00000000000000	-21.17204300000000	0.00000000000000	
4.31330700000000	-16.05812100000000	66.18510300000000	-11.35832200000000	0.35070800000000	0.00000000000000	0.12966300000000	-42.81758200000000	791.41173000000003	-48.64443600000000	0.17336100000000	0.00000000000000	-0.05764100000000	0.00000000000000	-6.16288200000000	0.00000000000000	0.00000000000000	-21.05225900000000	0.00000000000000	
4.31497600000000	-16.53796400000000	72.67324300000000	-11.91898100000000	0.35346900000000	0.00000000000000	0.13031500000000	-43.76534000000000	788.69575699999996	-48.26138300000000	0.17231000000000	0.00000000000000	-0.05754200000000	0.00000000000000	-6.55326500000000	0.00000000000000	0.00000000000000	-20.93265600000000	0.00000000000000	
4.31664900000000	-16.78671800000000	79.00475200000000	-12.34938000000000	0.35611400000000	0.00000000000000	0.13092500000000	-44.72543000000000	785.84510299999999	-47.86517100000000	0.17126200000000	0.00000000000000	-0.05744200000000	0.00000000000000	-6.88630200000000	0.00000000000000	0.00000000000000	-20.81310700000000	0.00000000000000	
4.31831100000000	-16.81708100000000	85.18263200000000	-12.65423900000000	0.35865700000000	0.00000000000000	0.13149900000000	-45.69663400000000	782.85632699999996	-47.45556100000000	0.17021700000000	0.00000000000000	-0.05733900000000	0.00000000000000	-7.16337100000000	0.00000000000000	0.00000000000000	-20.69347700000000	0.00000000000000	
4.31998100000000	-16.64873400000000	91.22789100000000	-12.84267000000000	0.36110900000000	0.00000000000000	0.13204000000000	-46.67763400000000	779.72597900000005	-47.03232200000000	0.16917500000000	0.00000000000000	-0.05723500000000	0.00000000000000	-7.38812700000000	0.00000000000000	0.00000000000000	-20.57361600000000	0.00000000000000	
4.32164500000000	-16.30595700000000	97.17506100000000	-12.92680300000000	0.36347900000000	0.00000000000000	0.13255200000000	-47.66701300000000	776.45060699999999	-46.59523400000000	0.16813800000000	0.00000000000000	-0.05712800000000	0.00000000000000	-7.56584300000000	0.00000000000000	0.00000000000000	-20.45336100000000	0.00000000000000	
4.32332500000000	-15.81529400000000	103.06738100000000	-12.92040800000000	0.36577500000000	0.00000000000000	0.13303900000000	-48.66325900000000	773.02677400000005	-46.14408800000000	0.16710600000000	0.00000000000000	-0.05702000000000	0.00000000000000	-7.70273000000000	0.00000000000000	0.00000000000000	-20.33253900000000	0.00000000000000	
4.32497700000000	-15.20342600000000	108.95210100000000	-12.83762800000000	0.36800400000000	0.00000000000000	0.13350300000000	-49.66476300000000	769.45106499999997	-45.67869200000000	0.16608000000000	0.00000000000000	-0.05690900000000	0.00000000000000	-7.80530000000000	0.00000000000000	0.00000000000000	-20.21096700000000	0.00000000000000	
